<svg version="1.2" xmlns="http://www.w3.org/2000/svg" viewBox="0 0 490 490" width="490" height="490"><style></style><path  d="m15.9-6.7c-12.1 4.1-20.4 11.9-25.1 23.4l-2.3 5.8-0.3 222.5c-0.2 219-0.2 222.6 1.7 229 3.8 12.3 12.1 21.4 23.8 26.2l5.8 2.3h224c178.6 0 224.9-0.3 228.2-1.3 6.8-2 16.4-9.1 20.6-15.2 2-3 4.6-8.3 5.7-11.8 2-6.3 2-10.1 2-227.2 0-217.1 0-220.9-2-227.2-4.3-14.1-14.3-23.7-28.5-27.4-4.1-1.1-45-1.4-226-1.4l-221 0.1zm340.9 143.9l0.2 24.8h-40.5-40.5v110 110h-32.5-32.5l-0.2-109.8-0.3-109.7-39.7-0.3-39.8-0.2v-24.3c0-13.4 0.3-24.7 0.7-25 0.3-0.4 51.1-0.6 112.7-0.5l112.1 0.3z"/></svg>